<?xml version="1.0" encoding="UTF-8"?><svg id="Layer_2" xmlns="http://www.w3.org/2000/svg" viewBox="0 0 443.46 519.31"><defs><style>.cls-1{font-family:RichmondDisplay-Bold, 'Richmond Display';font-size:61px;font-weight:700;}.cls-1,.cls-2{fill:#fff;}</style></defs><g id="Layer_1-2"><path class="cls-2" d="M221.73,12c115.83,0,209.73,93.9,209.73,209.73s-93.9,209.73-209.73,209.73S12,337.56,12,221.73,105.9,12,221.73,12M221.73,0c-29.93,0-58.97,5.86-86.31,17.43-26.4,11.17-50.12,27.15-70.48,47.51-20.36,20.36-36.35,44.07-47.51,70.48C5.86,162.76,0,191.8,0,221.73s5.86,58.97,17.43,86.31c11.17,26.4,27.15,50.12,47.51,70.48,20.36,20.36,44.07,36.35,70.48,47.51,27.34,11.57,56.38,17.43,86.31,17.43s58.97-5.86,86.31-17.43c26.4-11.17,50.12-27.15,70.48-47.51,20.36-20.36,36.35-44.07,47.51-70.48,11.57-27.34,17.43-56.38,17.43-86.31s-5.86-58.97-17.43-86.31c-11.17-26.4-27.15-50.12-47.51-70.48-20.36-20.36-44.07-36.35-70.48-47.51C280.7,5.86,251.66,0,221.73,0h0Z"/><path class="cls-2" d="M207.77,354.08c2.04.2,4.08.34,6.15.46v-53.49c-14.04.79-27.76,3.78-40.73,8.74,8.94,21.79,21.03,37.73,34.58,44.28Z"/><path class="cls-2" d="M157.39,213.7h56.53v-56.96c-15.82-.8-31.27-4.06-45.9-9.61-6.12,19.47-9.96,42.28-10.64,66.56Z"/><path class="cls-2" d="M173.19,132.81c12.98,4.96,26.69,7.95,40.73,8.74v-53.48c-2.06.12-4.11.25-6.15.46-13.55,6.56-25.64,22.49-34.58,44.28Z"/><path class="cls-2" d="M142.16,228.91h-53.97c1.96,34.64,17.19,65.77,40.65,88.43,7.84-6.07,16.25-11.25,25.03-15.64-6.85-21.17-11.04-45.95-11.71-72.79Z"/><path class="cls-2" d="M140.67,327.52c10.85,8.29,23.03,14.91,36.13,19.58-6.71-8.57-12.65-19.08-17.66-31.1-6.43,3.33-12.6,7.18-18.47,11.52Z"/><path class="cls-2" d="M153.87,140.91c-8.77-4.4-17.19-9.57-25.03-15.65-23.46,22.66-38.69,53.8-40.65,88.43h53.97c.68-26.83,4.86-51.61,11.71-72.78Z"/><path class="cls-2" d="M176.8,95.52c-13.09,4.67-25.27,11.29-36.12,19.58,5.86,4.34,12.03,8.19,18.46,11.52,5.01-12.02,10.95-22.53,17.66-31.1Z"/><path class="cls-2" d="M306.44,213.7h-5.55c-.67-26.84-4.87-51.61-11.71-72.79,1.91-.95,3.79-1.95,5.66-2.98,2.46,6.79,9.26,12.05,16.55,12.09-6.18,5.23-8.88,14.24-6.57,22,2.31,7.77,9.49,13.85,17.52,14.84-4.33,5.5-7.93,11.99-8.97,18.8l-6.93,8.04Z"/><path class="cls-2" d="M168.02,295.47c14.63-5.54,30.08-8.8,45.9-9.61v-56.96h-56.53c.67,24.28,4.51,47.09,10.64,66.56Z"/><path class="cls-2" d="M266.24,347.09c13.1-4.67,25.28-11.29,36.13-19.58-5.86-4.35-12.03-8.19-18.46-11.52-5.01,12.02-10.95,22.53-17.67,31.1Z"/><path class="cls-2" d="M229.13,301.06v53.49c2.06-.12,4.1-.26,6.15-.46,13.55-6.55,25.63-22.49,34.58-44.28-12.98-4.97-26.68-7.95-40.73-8.74Z"/><path class="cls-2" d="M334.4,292.55c-5.73,9.06-12.52,17.38-20.19,24.79-7.85-6.08-16.26-11.25-25.03-15.65,6.84-21.17,11.04-45.95,11.71-72.79h1.99c.48,5.35,2.71,10.46,6.77,13.95.6.51,1.25,1.02,1.51,1.76.28.8.04,1.68-.17,2.5-1.57,5.98-1.48,12.62,1.47,18.05,2.95,5.43,9.17,9.29,15.28,8.34-2.78,6.5-.16,14.83,5.83,18.58.27.17.55.33.83.47Z"/><path class="cls-2" d="M235.28,88.53c-2.05-.21-4.09-.34-6.15-.46v53.48c14.04-.79,27.75-3.78,40.73-8.74-8.95-21.8-21.03-37.73-34.58-44.28Z"/><path class="cls-2" d="M302.37,115.09c-10.86-8.29-23.04-14.91-36.13-19.58,6.72,8.57,12.66,19.08,17.67,31.1,6.43-3.33,12.6-7.18,18.46-11.52Z"/><path class="cls-2" d="M285.66,228.91h-56.53v56.96c15.81.81,31.27,4.06,45.89,9.61,6.12-19.47,9.96-42.28,10.64-66.56Z"/><path class="cls-2" d="M275.02,147.14c-14.63,5.55-30.08,8.8-45.89,9.61v56.96h56.53c-.67-24.28-4.52-47.09-10.64-66.56Z"/><text class="cls-1" transform="translate(141.4 90.4) rotate(-23.66)"><tspan x="0" y="0">B</tspan></text><text class="cls-1" transform="translate(178.21 75.06) rotate(-12.06)"><tspan x="0" y="0">I</tspan></text><text class="cls-1" transform="translate(199.3 69.58) rotate(-.93)"><tspan x="0" y="0">T</tspan></text><text class="cls-1" transform="translate(237.92 68.74) rotate(13.55)"><tspan x="0" y="0">E</tspan></text><text class="cls-1" transform="translate(275.06 77.69) rotate(27.08)"><tspan x="0" y="0">S</tspan></text><text class="cls-1" transform="translate(93.98 370.41) rotate(34.73)"><tspan x="0" y="0">A</tspan></text><text class="cls-1" transform="translate(133.19 396.69) rotate(20.66)"><tspan x="0" y="0">B</tspan></text><text class="cls-1" transform="translate(178.99 413.17) rotate(6.19)"><tspan x="0" y="0">R</tspan></text><text class="cls-1" transform="translate(229.47 417.71) rotate(-8.5)"><tspan x="0" y="0">O</tspan></text><text class="cls-1" transform="translate(277.49 409.69) rotate(-22.5)"><tspan x="0" y="0">A</tspan></text><text class="cls-1" transform="translate(321.46 391) rotate(-37.63)"><tspan x="0" y="0">D</tspan></text></g></svg>