<?xml version="1.0" encoding="UTF-8"?><svg id="Layer_2" xmlns="http://www.w3.org/2000/svg" viewBox="0 0 233.97 241.36"><defs><style>.cls-1{fill-rule:evenodd;}.cls-1,.cls-2{fill:#fff;stroke-width:0px;}</style></defs><g id="Layer_1-2"><path class="cls-2" d="M20.44,191.82l-3.94.69c.17-.74.26-1.36.26-1.86,0-3.21-2.06-4.81-6.19-4.81-3.26,0-4.89,1.11-4.89,3.32,0,1.66,1.82,3.08,5.46,4.27,7.03,2.28,10.54,5.65,10.54,10.11,0,2.62-.99,4.72-2.96,6.3-1.97,1.58-4.59,2.38-7.86,2.38-7.24,0-10.86-2.65-10.86-7.95,0-.43.04-.96.11-1.6l4.09-.85c-.31,1.17-.47,2.19-.47,3.05,0,3.42,2.08,5.14,6.24,5.14,3.33,0,4.99-1.23,4.99-3.7,0-1.83-1.99-3.45-5.98-4.83-5.76-2-8.63-5.18-8.63-9.57,0-2.48.96-4.48,2.88-6,1.92-1.52,4.45-2.27,7.57-2.27,6.43,0,9.64,2.73,9.64,8.19Z"/><path class="cls-2" d="M48.14,184.09v18.53c0,6.35-3.72,9.53-11.16,9.53s-11.12-3.18-11.12-9.53v-18.53h8.48v18.77c0,2.43.37,4.08,1.1,4.98.74.89,2.1,1.33,4.08,1.33,3.84,0,5.76-2.18,5.76-6.55v-18.53h2.85Z"/><path class="cls-2" d="M74.88,184.09v27.61h-6.49l-12.21-17.47v17.47h-2.85v-27.61h5.38l13.33,18.87v-18.87h2.85Z"/><path class="cls-2" d="M101.9,184.09v27.61h-6.49l-12.21-17.47v17.47h-2.85v-27.61h5.38l13.33,18.87v-18.87h2.85Z"/><path class="cls-2" d="M127.97,184.09l-7.14,17.41v10.19h-8.48v-10.19l-7.89-17.41h8.81l5.96,13.31,5.36-13.31h3.39Z"/><path class="cls-2" d="M163.66,191.82l-3.94.69c.17-.74.26-1.36.26-1.86,0-3.21-2.06-4.81-6.19-4.81-3.26,0-4.89,1.11-4.89,3.32,0,1.66,1.82,3.08,5.46,4.27,7.03,2.28,10.54,5.65,10.54,10.11,0,2.62-.99,4.72-2.96,6.3-1.97,1.58-4.59,2.38-7.86,2.38-7.24,0-10.86-2.65-10.86-7.95,0-.43.04-.96.11-1.6l4.09-.85c-.31,1.17-.47,2.19-.47,3.05,0,3.42,2.08,5.14,6.24,5.14,3.33,0,4.99-1.23,4.99-3.7,0-1.83-1.99-3.45-5.98-4.83-5.76-2-8.63-5.18-8.63-9.57,0-2.48.96-4.48,2.88-6,1.92-1.52,4.45-2.27,7.57-2.27,6.43,0,9.64,2.73,9.64,8.19Z"/><path class="cls-2" d="M177.88,184.09v27.61h-8.49v-27.61h8.49Z"/><path class="cls-2" d="M183.71,211.7v-27.61h12.13c8.61,0,12.92,4.61,12.92,13.83s-4.46,13.77-13.39,13.77h-11.66ZM192.19,209.41h2.23c2.04,0,3.46-.83,4.24-2.5.79-1.67,1.18-4.67,1.18-9.03s-.39-7.36-1.17-9.02-2.2-2.49-4.25-2.49h-2.23v23.04Z"/><path class="cls-2" d="M232.19,184.09v2.77h-10.48v8.35h8.81v2.77h-8.81v10.94h12.26v2.77h-20.74v-27.61h18.96Z"/><path class="cls-2" d="M55.25,229.42c1.34,0,2.38.31,3.14.92.76.61,1.14,1.46,1.14,2.53,0,.59-.16,1.11-.48,1.54-.32.44-.78.79-1.4,1.06.7.21,1.2.55,1.5,1.02.3.48.46,1.07.46,1.77v.6c0,.26.05.46.15.6.1.14.27.23.51.25l.29.04v1.42h-1.22c-.77,0-1.31-.21-1.62-.62-.31-.41-.47-.95-.47-1.61v-.67c0-.57-.15-1.02-.46-1.35-.3-.33-.73-.5-1.29-.51h-1.93v3.1l1.26.24v1.41h-4.87v-1.41l1.25-.24v-8.45l-1.25-.24v-1.42h5.29ZM53.57,234.61h1.63c.66,0,1.15-.14,1.48-.42.33-.28.49-.68.49-1.21s-.16-.95-.49-1.27c-.33-.31-.81-.47-1.44-.47h-1.67v3.37Z"/><path class="cls-2" d="M72.25,236.02h-3.99v3.36h3.8l.11-1.41h1.79v3.22h-9.31v-1.41l1.25-.24v-8.45l-1.25-.24v-1.42h9.3v3.22h-1.81l-.11-1.41h-3.77v2.96h3.99v1.82Z"/><path class="cls-2" d="M87.48,233.18h-1.77l-.31-1.62c-.21-.13-.5-.24-.9-.34-.39-.1-.81-.15-1.25-.15-.65,0-1.15.14-1.5.41-.35.27-.53.62-.53,1.05,0,.4.18.73.55.98.37.26,1.01.53,1.91.81,1.3.36,2.28.84,2.95,1.43.67.59,1.01,1.37,1.01,2.34s-.4,1.8-1.2,2.38c-.8.58-1.85.87-3.15.87-.93,0-1.77-.15-2.53-.44-.75-.3-1.38-.71-1.88-1.23v-2.46h1.83l.25,1.67c.24.19.56.35.97.48.41.13.86.19,1.36.19.65,0,1.14-.13,1.47-.4s.5-.62.5-1.06-.16-.82-.48-1.09c-.32-.27-.88-.53-1.69-.78-1.4-.4-2.45-.88-3.17-1.44-.72-.56-1.08-1.32-1.08-2.28s.4-1.73,1.21-2.34c.81-.61,1.82-.92,3.05-.93.91,0,1.73.14,2.47.41.74.27,1.37.64,1.88,1.1v2.41Z"/><path class="cls-2" d="M102.25,229.42v3.14h-1.81l-.1-1.32h-2.17v8.29l1.26.24v1.41h-4.88v-1.41l1.26-.24v-8.29h-2.16l-.1,1.32h-1.8v-3.14h10.49Z"/><path class="cls-2" d="M104.75,239.78l.84-.12,3.58-10.23h2.42l3.56,10.23.84.12v1.41h-4.01v-1.41l.82-.15-.52-1.62h-3.82l-.52,1.62.82.15v1.41h-4.01v-1.41ZM109.02,236.28h2.7l-1.33-4.15h-.05l-1.33,4.15Z"/><path class="cls-2" d="M124.32,229.42v1.42l-1.26.24v6.14c0,.78.21,1.36.63,1.74.42.39.99.58,1.72.58s1.32-.19,1.74-.57c.42-.38.63-.96.63-1.75v-6.14l-1.25-.24v-1.42h4.87v1.42l-1.26.24v6.14c0,1.32-.44,2.34-1.31,3.06s-2.01,1.08-3.42,1.08-2.54-.36-3.41-1.08c-.86-.72-1.3-1.74-1.3-3.06v-6.14l-1.25-.24v-1.42h4.87Z"/><path class="cls-2" d="M140.69,229.42c1.34,0,2.38.31,3.14.92.76.61,1.14,1.46,1.14,2.53,0,.59-.16,1.11-.48,1.54-.32.44-.78.79-1.4,1.06.7.21,1.2.55,1.5,1.02.3.48.46,1.07.46,1.77v.6c0,.26.05.46.15.6s.27.23.51.25l.29.04v1.42h-1.22c-.77,0-1.31-.21-1.62-.62-.31-.41-.47-.95-.47-1.61v-.67c0-.57-.15-1.02-.46-1.35-.3-.33-.73-.5-1.29-.51h-1.93v3.1l1.26.24v1.41h-4.87v-1.41l1.25-.24v-8.45l-1.25-.24v-1.42h5.29ZM139.01,234.61h1.63c.66,0,1.15-.14,1.48-.42.33-.28.49-.68.49-1.21s-.16-.95-.49-1.27c-.33-.31-.81-.47-1.44-.47h-1.67v3.37Z"/><path class="cls-2" d="M149.97,239.78l.84-.12,3.58-10.23h2.42l3.56,10.23.84.12v1.41h-4.01v-1.41l.82-.15-.52-1.62h-3.82l-.52,1.62.82.15v1.41h-4.01v-1.41ZM154.24,236.28h2.7l-1.33-4.15h-.05l-1.33,4.15Z"/><path class="cls-2" d="M177.32,229.42v1.42l-1.26.24v10.1h-2.35l-4.75-7.92h-.05v6.26l1.26.24v1.41h-4.87v-1.41l1.25-.24v-8.45l-1.25-.24v-1.42h3.61l4.75,7.92h.05v-6.26l-1.26-.24v-1.42h4.87Z"/><path class="cls-2" d="M191.75,229.42v3.14h-1.81l-.1-1.32h-2.17v8.29l1.26.24v1.41h-4.88v-1.41l1.26-.24v-8.29h-2.16l-.1,1.32h-1.8v-3.14h10.49Z"/><path class="cls-2" d="M73.76,109.73c4.7.5,9.16,2.66,12.57,6.07.12.12.29.19.5.18.19-.02.35-.12.46-.27,1.52-2.26,1.94-5.73,1.09-9.08-.3-1.17-.74-2.26-1.29-3.23-.89-1.55-2.08-2.73-3.42-3.43-.91-.47-1.98-.68-3.05-.61.6-.89.95-1.92,1-2.95.07-1.51-.36-3.12-1.26-4.67-.56-.97-1.28-1.89-2.15-2.74-2.47-2.41-5.69-3.78-8.4-3.6-.19.01-.36.11-.46.26-.11.15-.14.34-.09.52,1.25,4.65.89,9.6-1.03,13.92-1.98,4.47-6.04,9.18-11.54,9.18-.09,0-.18,0-.26,0-2.7-.08-5.16-1.24-6.93-3.27-1.82-2.09-2.53-4.8-1.93-7.44.38-1.7,1.41-3.16,2.89-4.09,1.48-.94,3.23-1.24,4.94-.85,2.75.62,4.48,3.36,3.86,6.11-.48,2.13-2.61,3.47-4.74,2.99-.68-.15-1.43-.66-1.91-1.3-.35-.47-.58-1.01-.62-1.47.11,0,.22-.02.32-.06.24-.09.44-.26.55-.5.11-.23.12-.5.03-.75-.18-.5-.74-.76-1.24-.58-.5.18-.74.77-.81,1.01-.27.89.03,2.07.78,3.08.65.88,1.66,1.56,2.64,1.77,2.8.62,5.59-1.13,6.22-3.93.77-3.42-1.38-6.83-4.8-7.6-2.03-.46-4.12-.1-5.87,1.01-1.76,1.11-2.98,2.84-3.44,4.87-.68,3.03.12,6.14,2.21,8.53,2,2.29,4.78,3.61,7.83,3.7.11,0,.22,0,.33,0,6.09,0,10.52-5.12,12.65-9.92,1.91-4.32,2.37-9.27,1.29-13.97,2.2.11,4.75,1.35,6.7,3.25,2.03,1.98,3.13,4.34,3.03,6.46-.08,1.7-1.2,3.32-2.73,3.92-1.21.48-2.42.22-3.41-.74-.49-.47-.76-1.1-.77-1.78-.01-.68.24-1.31.72-1.8.73-.75,1.94-.77,2.69-.04.22.22.41.62.44.98,0,.07,0,.14,0,.21-.01,0-.03,0-.04,0-.53-.07-1.02.29-1.11.81-.08.53.27,1.02.8,1.11.5.09.88-.24,1.03-.38.41-.41.62-1.12.55-1.85-.06-.67-.37-1.34-.81-1.76-1.24-1.2-3.24-1.17-4.44.07-.7.72-1.08,1.67-1.07,2.69.01,1.01.42,1.95,1.15,2.65.88.85,1.97,1.32,3.11,1.32-.57.98-.71,2.13-.41,3.35.25.98.86,1.8,1.73,2.32.87.52,1.88.66,2.86.42,1.68-.42,2.7-2.13,2.28-3.81-.15-.59-.58-1.2-1.12-1.59-.6-.42-1.32-.6-1.88-.45-.31.08-.69.31-.84.7-.19.5.06,1.06.56,1.25.24.09.51.08.74-.02.24-.11.42-.3.51-.54,0-.01,0-.02.01-.04.06.03.12.07.17.11.3.21.55.56.63.88.25,1.02-.37,2.05-1.38,2.31-.66.17-1.34.07-1.92-.28-.58-.35-.99-.9-1.16-1.56-.33-1.33.04-2.51,1.07-3.32,1.29-1.02,3.24-1.19,4.76-.4,1.89.98,3.38,3.11,4.08,5.86.68,2.64.47,5.47-.53,7.43-3.52-3.29-8.04-5.37-12.74-5.87-5.35-.57-12.12.78-15.08,6.28-1.44,2.69-1.7,5.75-.71,8.63,1.03,3,3.32,5.26,6.28,6.18.76.24,1.54.36,2.32.36,1.25,0,2.5-.31,3.61-.9,1.84-.97,3.2-2.6,3.81-4.58.5-1.62.35-3.34-.44-4.84-.79-1.51-2.12-2.61-3.74-3.12-2.74-.85-5.66.68-6.52,3.42-.3.95-.22,2.17.21,3.17.5,1.16,1.38,2.01,2.29,2.22.25.05.87.15,1.29-.2.4-.34.46-.96.11-1.37-.17-.2-.4-.32-.66-.34-.26-.02-.51.06-.71.23-.08.07-.15.16-.21.25-.38-.27-.73-.74-.96-1.28-.32-.73-.38-1.63-.17-2.3.65-2.08,2.88-3.26,4.97-2.61,2.69.84,4.2,3.71,3.36,6.4-.52,1.67-1.66,3.04-3.21,3.85-1.54.81-3.32.97-4.99.45-2.58-.8-4.57-2.77-5.48-5.39-.87-2.55-.65-5.26.63-7.64,2.67-4.95,8.9-6.16,13.85-5.63ZM136.93,113.46c-.09-.14-.23-.23-.39-.26-.17-.03-.33,0-.47.09-6.54,4.35-14.16,6.65-22.04,6.65s-15.5-2.3-22.04-6.65c-.14-.09-.3-.12-.47-.09-.16.03-.3.13-.39.27-.19.29-.11.67.17.86,6.74,4.48,14.6,6.85,22.73,6.85s15.98-2.37,22.73-6.86c.28-.19.36-.57.17-.86ZM179.29,113.18c-.13-.31-.47-.46-.79-.35-1.71.63-3.52.83-5.51.61-.24-.04-.48.08-.61.31-.12.21-.11.48.04.68,1.19,1.61,1.92,3.28,2.23,5.08.06.32.37.55.69.51,3.15-.41,4.52-.34,7.35.37.05.01.1.02.15.02.22,0,.43-.12.54-.31.14-.24.1-.55-.09-.74-2.03-2.09-2.78-3.25-3.99-6.18ZM178.49,118.52c-.78,0-1.62.06-2.74.19-.31-1.39-.83-2.68-1.61-3.95,1.48.04,2.86-.15,4.22-.58.89,2.08,1.58,3.25,2.69,4.57-.91-.16-1.71-.24-2.56-.24ZM114.03,136.41c-1.55,0-2.82,1.27-2.82,2.82s1.27,2.82,2.82,2.82,2.82-1.27,2.82-2.82-1.26-2.82-2.82-2.82ZM114.03,140.81c-.87,0-1.58-.71-1.58-1.58s.71-1.58,1.58-1.58,1.58.71,1.58,1.58-.71,1.58-1.58,1.58ZM73.5,135.27c.38.37,1,.36,1.37-.02.37-.38.36-1-.02-1.37-.25-.24-.63-.34-1.03-.27-.52.1-1.03.48-1.29.81-.45.55-.65,1.24-.58,1.95.07.71.42,1.34.97,1.79.64.52,1.33.78,2.07.78.15,0,.29,0,.43-.03.99-.13,2.06-.77,2.99-1.8.61-.66,1.15-1.48,1.58-2.36,2.19-4.48.84-9.75-1.14-13.19-.31-.54-.66-1.07-1.02-1.56-.1-.13-.24-.22-.41-.25-.16-.02-.33.02-.45.11-.14.1-.23.24-.25.41-.03.16.02.33.12.46,1.79,2.43,2.9,5.43,3.04,8.28-.42-.21-.88-.27-1.34-.18-.98.2-1.64,1.02-1.68,2.11-.02.41.05.86.2,1.31.14.44.34.82.51,1.16.33.66.59,1.18.43,1.91-.13.57-.4.9-.92,1.38-.62.56-1.25.9-1.83.98-.54.07-1.06-.09-1.55-.48-.59-.49-.7-1.36-.23-1.96.01.01.03.03.04.04ZM78.77,130.04c.32-.06.77.06,1.07.6-.1,1.1-.35,2.15-.76,3.11-.12-.32-.26-.62-.41-.91h0s0-.02,0-.02c-.15-.31-.31-.62-.43-.97-.1-.31-.15-.61-.14-.87.02-.49.29-.87.68-.94ZM96.57,43.54s0,0,0,0c-.15-.3-.53-.43-.83-.28-7.25,3.6-13.24,9.22-17.3,16.26-4.06,7.04-5.94,15.03-5.43,23.11.02.32.29.58.62.58.01,0,.03,0,.04,0,.34-.02.6-.31.58-.66-.5-7.84,1.32-15.59,5.26-22.41,3.94-6.82,9.74-12.27,16.78-15.76.3-.15.43-.52.28-.83ZM178.97,123.36h0c-.16.03-.3.12-.4.26-5.17,7.64-11.6,14.26-19.12,19.67l-.18.13c-1.02.73-1.9,1.37-3.05,1.84-3.11,1.26-7,1.16-10.17-.26-.18-.08-.38-.07-.55.02-.17.09-.29.25-.32.44-.64,3.72-2.47,6.47-5.29,7.95-.73.38-1.28.56-2.04.8-.23.07-.45.14-.68.21-.15.05-.28.15-.35.28-.09.15-.11.33-.06.5.05.16.15.29.3.37.09.05.19.07.29.07.06,0,.12,0,.18-.03.8-.25,1.61-.52,2.39-.79,5.88-2.04,11.54-4.79,16.81-8.19,1.22-.79,2.33-1.54,3.49-2.38,7.62-5.49,14.13-12.2,19.36-19.93.1-.13.14-.3.11-.46-.03-.17-.13-.32-.27-.41-.13-.09-.3-.13-.46-.1ZM143.46,152.16c1.36-1.53,2.3-3.46,2.8-5.74,2.23.85,4.72,1.15,7.09.84-3.17,1.86-6.5,3.51-9.89,4.89ZM68.19,65.16v.02c-.19.55-.37,1.12-.53,1.7-.31,1.08-.58,2.17-.81,3.26-.07.33.15.66.48.73.04,0,.09.01.13.01.29,0,.54-.2.61-.49,1.02-4.85,2.8-9.5,5.29-13.81,2.49-4.32,5.63-8.18,9.32-11.49.25-.24.27-.62.04-.87-.11-.12-.26-.2-.42-.21-.16-.02-.32.04-.45.16-.83.74-1.64,1.52-2.42,2.33-.43.44-.85.91-1.22,1.33-.41.46-.84.94-1.28,1.38-1.73,1.76-4.32,3.79-8.87,3.68h0c-.21,0-.43.13-.54.31-.11.2-.11.44,0,.63,2.37,3.89,1.91,7.13,1.24,9.52-.17.61-.37,1.21-.56,1.8ZM69.09,54.12c1.92-.09,3.63-.53,5.21-1.37-.71,1.04-1.39,2.12-2.02,3.21-.63,1.09-1.22,2.21-1.77,3.35-.07-1.78-.54-3.49-1.42-5.2ZM54.68,43.84c1.1.61,2.34.94,3.59.94.69,0,1.38-.1,2.05-.29,1.56-.45,2.85-1.47,3.64-2.89.79-1.42.97-3.06.53-4.61-.76-2.63-3.51-4.17-6.15-3.41-.92.26-1.85.96-2.42,1.83-.74,1.13-.92,2.46-.43,3.3.09.15.32.5.66.63.5.19,1.06-.06,1.25-.56.19-.5-.06-1.06-.56-1.26-.12-.04-.25-.06-.39-.06.03-.43.21-.93.5-1.38.41-.62,1.09-1.14,1.72-1.32.96-.28,1.96-.16,2.84.33.87.48,1.51,1.28,1.78,2.23.36,1.24.21,2.54-.42,3.67-.62,1.12-1.65,1.94-2.89,2.29-1.59.46-3.26.26-4.7-.54-1.44-.8-2.49-2.12-2.95-3.7-1.26-4.4,1.27-9.12,5.65-10.53,2.66-.85,6.15-.39,9.57,1.27,1.04.51,1.66.89,2.36,1.68,1.44,1.65,1.84,3.77,2.13,5.33.1.52.18.94.28,1.28.28.92.82,2.19,1.78,2.99,1.4,1.15,3.33,1.16,4.6.01.69-.62,1.12-1.5,1.17-2.39,2.6,1.79,6.57,4.04,11.56,3.9.27,0,.51-.19.58-.45.08-.26-.03-.54-.25-.69-4.8-3.16-7.97-6.34-9.69-9.72,4.26,1.43,8.28,2.03,11.95,1.77,5.35-.37,9.73-2.5,13.04-6.33.22-.26.19-.65-.06-.87-.13-.12-.29-.17-.45-.15-.17.01-.32.09-.43.21-3.08,3.57-7.18,5.56-12.18,5.9-3.88.27-8.19-.46-12.81-2.18-.23-.08-.49-.02-.66.15-.17.17-.22.43-.13.66,1.44,3.67,4.38,7.06,8.96,10.37-3.89-.45-7.04-2.39-9.37-4.05-.4-.29-.82-.6-1.32-.98-.96-.74-1.97-1.55-2.71-2.15l-.03-.02c-1.62-1.31-3.16-2.55-4.77-3.63-1.4-.95-2.72-1.67-4.04-2.22-3.41-1.43-6.77-1.74-9.46-.88-5.01,1.61-7.91,7.01-6.46,12.05.54,1.91,1.8,3.49,3.54,4.45ZM75.12,35.06l.02.02c1.07.86,2.17,1.75,3.29,2.59.42.73.18,1.85-.55,2.51-.69.62-1.88.85-2.98-.05-.73-.6-1.16-1.63-1.38-2.39-.08-.28-.16-.68-.25-1.15-.2-1.05-.46-2.46-1.11-3.86,1.01.76,2,1.56,2.97,2.34ZM124.04,127.22h.03c.57-.13,1.15-.25,1.73-.4,1.08-.27,2.16-.58,3.23-.93.32-.11.5-.46.4-.78-.11-.32-.45-.49-.78-.4-4.71,1.54-9.62,2.32-14.61,2.32s-9.9-.78-14.62-2.32c-.33-.1-.67.08-.77.4-.11.33.07.68.4.78,1.06.35,2.15.66,3.23.93.57.14,1.16.27,1.72.39h.03c.66.15,1.25.28,1.84.42,2.4.62,5.44,1.84,7.62,5.84.11.2.32.32.54.32s.43-.12.55-.32c2.18-3.99,5.22-5.21,7.62-5.83.59-.15,1.18-.28,1.84-.42ZM114.03,131.95c-1.04-1.62-2.28-2.88-3.79-3.83,2.52.2,5.06.2,7.58,0-1.51.95-2.75,2.21-3.79,3.83ZM45.65,65.32c1.13.86,2.43,1.64,3.94,2.38,1.74.85,3.61,1.57,5.6,2.34,1.04.4,2.12.82,3.17,1.26.54.22,1.03.44,1.51.66,2.6,1.19,5.86,2.94,8.19,6.09-5.16-2.32-9.57-3.16-13.47-2.58-.24.04-.44.21-.51.45-.06.23.02.48.2.64,3.79,3.14,6.59,6.5,8.29,10,2.2,4.51,2.53,9.05.98,13.51-.11.32.06.68.38.79.07.02.13.03.2.03.26,0,.5-.17.59-.42,1.67-4.78,1.32-9.64-1.04-14.46-1.61-3.3-4.14-6.48-7.51-9.46,3.78-.2,8.12.95,13.27,3.53.24.12.54.07.72-.12.19-.2.23-.49.1-.73-2.38-4.41-6.32-6.71-9.15-8.06.74-.49,1.29-1.31,1.48-2.21.18-.83.05-1.68-.37-2.4-.41-.71-1.08-1.25-1.94-1.58-1.17-.44-2.54-.27-3.48-.05-.36.08-.81.24-1.25.4-1.49.53-3.53,1.24-5.68.82-1.03-.21-1.67-.55-2.64-1.2-3.15-2.13-5.29-4.92-5.89-7.65-.97-4.49,1.85-9.04,6.29-10.15,1.6-.4,3.27-.15,4.68.7,1.42.85,2.42,2.2,2.82,3.8.31,1.25.12,2.55-.55,3.65-.66,1.1-1.72,1.88-2.97,2.2-2,.49-4.03-.73-4.53-2.72-.16-.64-.05-1.48.28-2.15.24-.47.58-.88.94-1.12.06.12.14.22.25.31.42.33,1.03.27,1.36-.15.33-.42.27-1.03-.14-1.36-.27-.22-.66-.26-.88-.26-.97,0-2.03.81-2.64,2.02-.47.94-.61,2.09-.37,3.01.32,1.29,1.13,2.37,2.27,3.06,1.14.68,2.48.88,3.76.56,1.57-.39,2.9-1.37,3.73-2.76.84-1.39,1.08-3.02.69-4.59-.17-.68-.43-1.33-.78-1.92-.62-1.08-1.52-1.99-2.61-2.64-1.7-1.02-3.7-1.32-5.62-.84-5.09,1.27-8.32,6.48-7.2,11.62.6,2.77,2.55,5.53,5.49,7.76ZM55.98,66.5v-.02s0,0,0,0h0s.02,0,.02,0c0,0,.02,0,.03,0,.42-.15.79-.28,1.07-.34.77-.18,1.88-.32,2.76,0,1.33.5,1.73,1.64,1.53,2.55-.2.96-1.05,1.73-1.89,1.73-1.29-.55-2.62-1.07-3.91-1.57-1.22-.47-2.38-.92-3.51-1.4,1.53-.14,2.88-.61,3.89-.97ZM46.21,88.84s0,0,0,0c.42-.07,1-.32,1.34-.72.26-.3.37-.69.28-1.03-.13-.51-.66-.83-1.18-.7-.52.13-.83.66-.7,1.18,0,.02,0,.04.01.05-.75.1-1.46-.42-1.58-1.18-.1-.62.02-1.15.36-1.59.36-.46.96-.84,1.76-1.09.67-.21,1.09-.29,1.65-.11.71.22,1.03.71,1.45,1.35.21.33.44.66.74,1,.32.36.66.64,1.03.83.96.51,2.01.35,2.67-.4.31-.36.49-.78.52-1.25,2.39,1.55,4.44,4.01,5.65,6.77.07.15.19.27.34.33.07.03.15.04.23.04.09,0,.17-.02.25-.05.15-.07.27-.19.33-.34.06-.16.06-.32,0-.47-.25-.57-.53-1.13-.84-1.67-1.99-3.44-5.88-7.24-10.85-7.58-.98-.07-1.96,0-2.84.19-1.36.3-2.44.9-3.05,1.69-.56.72-.76,1.57-.6,2.54.11.7.49,1.31,1.07,1.73.57.42,1.27.58,1.98.47ZM53.14,84.39c.32.53.19.99-.01,1.22-.27.3-.72.35-1.16.12-.23-.12-.46-.31-.68-.56-.24-.27-.44-.58-.65-.88-.18-.27-.36-.54-.57-.8,1.04.13,2.07.43,3.07.89ZM172.47,49.42c-.34.6-.6,1.25-.77,1.93-.39,1.57-.15,3.2.68,4.59.84,1.39,2.16,2.37,3.73,2.76,2.66.66,5.37-.96,6.03-3.62.24-.93.09-2.08-.37-3.02-.61-1.21-1.67-2.02-2.65-2.02-.17,0-.59.03-.87.26-.42.34-.48.95-.14,1.37.34.41.95.48,1.37.14.1-.09.19-.19.25-.3.36.24.7.65.94,1.12.33.67.45,1.51.28,2.15-.5,1.99-2.53,3.21-4.53,2.72-1.25-.31-2.3-1.1-2.97-2.2-.66-1.1-.86-2.4-.54-3.65.4-1.6,1.4-2.95,2.82-3.8,1.42-.85,3.08-1.1,4.68-.7,4.44,1.11,7.27,5.67,6.29,10.15-.59,2.73-2.74,5.52-5.89,7.65-.96.65-1.6,1-2.64,1.2-2.14.42-4.17-.29-5.67-.82-.44-.15-.89-.31-1.25-.4-.94-.22-2.3-.39-3.48.05-.86.32-1.53.87-1.94,1.57-.42.72-.55,1.57-.37,2.4.19.9.74,1.71,1.49,2.21-2.84,1.35-6.78,3.66-9.16,8.06-.13.24-.09.53.1.72.19.2.48.25.73.12,5.13-2.58,9.48-3.73,13.27-3.53-3.37,2.98-5.9,6.16-7.51,9.46-2.35,4.81-2.7,9.68-1.04,14.46.09.25.33.41.59.41.07,0,.14-.01.2-.04.32-.11.49-.46.38-.79-1.55-4.46-1.22-9,.98-13.5,1.71-3.5,4.5-6.86,8.3-10,.19-.16.27-.41.2-.64-.07-.23-.26-.41-.51-.45-3.9-.58-8.3.26-13.47,2.58,2.33-3.15,5.59-4.9,8.19-6.09.46-.21.96-.43,1.51-.65,1.07-.45,2.19-.88,3.18-1.26l.04-.02c1.95-.75,3.8-1.46,5.54-2.32,1.52-.74,2.81-1.52,3.95-2.38,2.94-2.23,4.89-4.99,5.49-7.76,1.12-5.14-2.12-10.35-7.2-11.62-1.92-.48-3.92-.18-5.62.84-1.08.65-1.98,1.56-2.61,2.64ZM172.48,68.86h-.01s.04.11.04.11l-.06-.1c-1.28.49-2.6,1-3.89,1.56-.85,0-1.68-.76-1.89-1.73-.19-.92.2-2.06,1.53-2.55.35-.13.76-.2,1.23-.2s.99.06,1.53.19c.28.06.65.19,1.12.36,1.01.36,2.36.83,3.89.97-1.12.48-2.28.92-3.5,1.39ZM191.72,65.11h0c-.16-.83-.33-1.66-.51-2.46-.08-.33-.4-.54-.74-.47-.17.04-.32.15-.4.3-.08.13-.1.29-.07.45l.16.7c.17.78.29,1.35.32,2.16.13,3.19-1.33,6.15-4.24,8.56-.15.12-.23.3-.22.49,0,.2.1.37.26.49,2.82,2.04,4.85,5.36,5.32,8.68.17,1.22.06,2.3-.06,3.54l-.02.24c-.93,9.22-3.44,18.1-7.47,26.39-.07.15-.08.32-.03.47.05.16.17.29.32.36.08.04.18.06.27.06.08,0,.15-.01.22-.04.15-.06.28-.17.33-.31,4.09-8.4,6.64-17.4,7.59-26.75.15-1.44.25-2.77.31-4.21.3-6.27-.14-12.54-1.32-18.65ZM187.61,74.79c1.72-1.57,2.92-3.35,3.57-5.29.49,3.63.73,7.33.71,11.01-.93-2.21-2.43-4.22-4.28-5.72ZM179.26,43.06c1.22-.11,2.33.04,3.4.47.08.03.15.05.24.05s.17-.02.24-.05c.15-.06.28-.19.34-.35.71-1.85,1.16-2.58,2.39-3.89.19-.2.22-.5.08-.74-.14-.23-.42-.36-.68-.29-1.75.41-2.6.43-4.56.12-.16-.03-.34.01-.46.11-.14.1-.23.25-.25.41-.16,1.14-.59,2.18-1.29,3.18-.14.19-.15.45-.02.67.12.21.36.35.59.31ZM181.11,39.69c1.11.15,1.88.18,2.7.09-.49.67-.85,1.35-1.27,2.38-.72-.23-1.44-.35-2.2-.38.36-.68.61-1.36.77-2.1ZM151.36,120.26c-.03-.16-.11-.31-.25-.41-.13-.1-.3-.14-.46-.12-.16.03-.31.11-.41.24-.37.5-.71,1.03-1.02,1.57-1.99,3.44-3.33,8.71-1.14,13.2.43.88.98,1.7,1.58,2.36.94,1.03,2,1.66,2.99,1.8.14.02.29.03.43.03.74,0,1.43-.26,2.07-.78.55-.45.89-1.08.96-1.79.07-.71-.13-1.4-.58-1.95-.27-.33-.78-.71-1.29-.8-.4-.08-.78.02-1.03.27-.38.37-.39.99-.02,1.37.37.38.99.39,1.37.02.01-.01.03-.03.04-.04.46.6.36,1.47-.23,1.96-.48.39-1.01.55-1.56.48-.58-.08-1.21-.42-1.83-.98-.45-.41-.78-.75-.92-1.38-.16-.72.1-1.25.44-1.91.16-.32.36-.71.51-1.16.15-.46.22-.89.2-1.31-.04-1.09-.7-1.92-1.68-2.11-.47-.09-.92-.03-1.34.18.15-2.85,1.25-5.85,3.04-8.28.1-.13.14-.3.12-.46ZM149.29,130.04c.4.08.66.45.68.95.01.26-.04.55-.14.87-.12.36-.29.69-.44.99-.15.29-.29.59-.41.91-.41-.96-.67-2.01-.76-3.11.3-.53.74-.66,1.07-.6ZM49.55,72.62c-.49.28-.84.74-.98,1.28s-.07,1.11.21,1.6c.38.65,1.08,1.05,1.83,1.05.37,0,.73-.1,1.05-.28,1-.58,1.35-1.88.77-2.88-.58-1-1.87-1.35-2.88-.77ZM51.03,75.2c-.2.12-.43.15-.66.09-.22-.06-.41-.2-.53-.4-.12-.2-.15-.43-.09-.65.06-.22.21-.41.41-.53.13-.08.28-.12.43-.12.31,0,.6.17.75.43.24.41.1.95-.32,1.18ZM96.94,38.2h0c-.18.05-.33.17-.4.34-.08.17-.08.37,0,.53,1.19,2.45,4,4.55,7.32,5.48,3.03.85,6.06.57,8.12-.75.86-.55,1.59-1.38,2.06-2.34.47.96,1.19,1.79,2.05,2.34,1.27.82,2.89,1.25,4.68,1.25,1.12,0,2.27-.17,3.44-.49,3.32-.93,6.12-3.03,7.32-5.48.08-.17.08-.36,0-.53-.08-.17-.22-.29-.41-.34-4.66-1.24-8.75-4.03-11.54-7.85-2.93-4.02-5.01-10.02-2.05-14.81,1.42-2.3,3.66-3.85,6.3-4.37,2.72-.53,5.43.21,7.41,2.05,1.28,1.19,2.03,2.8,2.1,4.55.07,1.75-.54,3.42-1.73,4.7-1.91,2.07-5.15,2.2-7.23.29-1.61-1.48-1.7-4-.22-5.61.47-.52,1.29-.91,2.08-1,.59-.06,1.17,0,1.59.2-.05.09-.09.2-.11.3-.05.25,0,.51.16.73.15.21.37.36.63.4.51.09,1.03-.27,1.12-.78.1-.57-.38-1.11-.47-1.21-.64-.68-1.81-1.01-3.06-.87-1.09.13-2.18.66-2.85,1.4-1.94,2.11-1.81,5.41.3,7.36,2.57,2.38,6.6,2.21,8.98-.36,1.41-1.53,2.14-3.52,2.06-5.59-.08-2.08-.97-4-2.5-5.41-2.28-2.11-5.38-2.96-8.49-2.35-2.99.59-5.52,2.34-7.12,4.93-3.28,5.32-1.07,11.85,2.1,16.2,2.78,3.82,6.85,6.69,11.45,8.1-1.2,1.85-3.54,3.44-6.17,4.17-2.73.77-5.32.54-7.11-.6-1.44-.92-2.27-2.7-2.03-4.32.19-1.29,1.02-2.21,2.34-2.58.65-.18,1.34-.1,1.93.22.59.33,1.02.87,1.2,1.52.29,1.01-.3,2.06-1.31,2.35-.3.09-.73.04-1.07-.11-.06-.03-.13-.06-.18-.1,0,0,.02-.02.03-.03.33-.42.27-1.03-.14-1.36-.2-.16-.45-.23-.71-.21-.26.03-.49.15-.65.35-.33.41-.22.93-.18,1.08.15.55.66,1.09,1.33,1.4.61.28,1.35.35,1.93.17,1.67-.47,2.64-2.22,2.16-3.88-.27-.97-.91-1.77-1.79-2.27-.88-.49-1.9-.61-2.87-.33-1.21.34-2.13,1.04-2.7,2.03-.56-.98-1.49-1.68-2.7-2.03-.97-.28-1.99-.16-2.87.33-.88.49-1.52,1.3-1.79,2.27-.48,1.67.49,3.41,2.16,3.88.59.17,1.33.11,1.94-.17.67-.31,1.18-.85,1.33-1.4.04-.15.15-.67-.19-1.08-.34-.41-.95-.47-1.36-.14-.41.34-.48.95-.14,1.37,0,0,.02.02.02.03-.06.04-.12.07-.18.1-.34.15-.77.2-1.07.11-1.01-.29-1.6-1.34-1.31-2.35.19-.65.61-1.19,1.2-1.52.59-.33,1.28-.41,1.93-.22,1.32.38,2.15,1.29,2.34,2.58.24,1.62-.6,3.4-2.03,4.32-1.79,1.15-4.38,1.37-7.11.6-2.62-.73-4.97-2.33-6.17-4.17,4.61-1.41,8.67-4.28,11.45-8.1,3.17-4.34,5.39-10.88,2.1-16.2-1.6-2.59-4.13-4.34-7.12-4.93-3.11-.62-6.21.24-8.49,2.35-1.53,1.41-2.42,3.33-2.5,5.41-.08,2.08.65,4.06,2.06,5.59,2.38,2.57,6.41,2.73,8.98.36,2.11-1.95,2.24-5.24.3-7.35-.67-.74-1.76-1.28-2.85-1.4-1.25-.14-2.42.19-3.06.87-.13.14-.57.66-.47,1.21.1.53.6.88,1.13.78.26-.04.48-.19.63-.4.15-.21.2-.47.16-.73-.02-.11-.06-.21-.11-.3.42-.19,1-.27,1.59-.2.79.09,1.61.49,2.08,1.01,1.48,1.61,1.38,4.12-.22,5.6-2.07,1.91-5.31,1.78-7.22-.29-1.19-1.28-1.8-2.96-1.73-4.7.07-1.75.82-3.36,2.1-4.55,1.98-1.83,4.68-2.58,7.41-2.05,2.64.52,4.88,2.07,6.3,4.37,2.96,4.79.88,10.79-2.05,14.81-2.78,3.82-6.88,6.6-11.54,7.85ZM159.01,105.31l-3.94-2.28c-.15-.08-.31-.1-.47-.06-.16.04-.29.14-.38.29,0,0,0,0,0,.01-.16.29-.06.67.23.84l3.94,2.27c.1.05.2.08.31.08.05,0,.11,0,.16-.02.16-.04.3-.14.38-.29.08-.14.11-.31.06-.47-.04-.16-.15-.3-.29-.38ZM184.9,86.63c.15-.97-.05-1.83-.6-2.54-.62-.8-1.7-1.4-3.06-1.7-.88-.19-1.86-.26-2.84-.19-4.98.35-8.87,4.15-10.86,7.59-.32.55-.6,1.11-.84,1.67-.07.15-.07.32,0,.48.06.15.18.27.33.34.08.04.17.05.25.05.08,0,.15-.02.22-.04.15-.06.28-.18.34-.33,1.2-2.77,3.25-5.22,5.65-6.77.03.46.21.89.52,1.25.66.75,1.71.9,2.67.4.37-.19.71-.47,1.03-.83.3-.34.52-.68.75-1.02.41-.62.73-1.11,1.44-1.33.56-.17.98-.11,1.65.11.8.25,1.41.63,1.76,1.09.34.43.46.97.36,1.59-.12.76-.83,1.28-1.58,1.18,0-.02.01-.04.02-.05.13-.52-.19-1.04-.71-1.18-.51-.13-1.04.19-1.18.7-.09.34.02.72.28,1.03.35.4.93.65,1.35.72.7.11,1.4-.06,1.98-.47.58-.42.96-1.03,1.07-1.73ZM177.42,84.3c-.18.28-.39.59-.64.87-.22.25-.45.44-.68.56-.44.23-.89.18-1.16-.12-.21-.24-.33-.7-.01-1.22,1-.47,2.04-.77,3.07-.89-.22.26-.4.54-.58.81ZM178.52,72.62c-1.01-.58-2.3-.23-2.88.77-.58,1.01-.23,2.3.77,2.88.32.19.69.28,1.05.28.18,0,.37-.03.55-.07.54-.15,1-.49,1.28-.98.28-.49.36-1.05.21-1.6-.14-.54-.49-1-.98-1.28ZM178.22,74.88c-.11.2-.3.34-.53.4-.22.06-.46.03-.66-.09-.2-.12-.34-.3-.4-.53-.06-.22-.03-.46.09-.66.15-.27.44-.43.75-.43.15,0,.3.04.43.12.2.12.34.3.4.53.06.22.03.46-.09.66ZM171.67,109.29c-5.63.17-9.8-4.66-11.8-9.18-1.91-4.32-2.28-9.26-1.03-13.91.05-.18.01-.37-.09-.52-.11-.15-.28-.25-.46-.26-2.71-.2-5.94,1.18-8.4,3.6-.87.85-1.59,1.77-2.15,2.73-.89,1.55-1.33,3.17-1.26,4.67.05,1.02.4,2.06,1,2.95-1.06-.07-2.14.14-3.05.61-1.34.69-2.52,1.88-3.42,3.42-.56.97-.99,2.05-1.3,3.23-.85,3.34-.44,6.82,1.09,9.07.1.16.27.26.46.27.18.02.37-.05.5-.18,3.41-3.41,7.87-5.56,12.57-6.07,4.95-.53,11.18.68,13.85,5.63,1.28,2.38,1.5,5.09.63,7.64-.9,2.63-2.9,4.59-5.48,5.39-1.67.52-3.45.36-4.99-.46-1.55-.81-2.69-2.18-3.21-3.85-.84-2.69.67-5.56,3.36-6.4,2.09-.65,4.31.52,4.97,2.61.21.67.15,1.57-.17,2.3-.23.54-.59,1.01-.96,1.28-.05-.09-.12-.18-.21-.25-.2-.17-.45-.25-.71-.23-.26.02-.5.14-.66.34-.34.41-.29,1.02.12,1.37.45.38,1.15.23,1.29.2.91-.21,1.78-1.06,2.28-2.21.43-1.01.52-2.22.21-3.17-.41-1.32-1.32-2.41-2.55-3.06-1.23-.65-2.64-.78-3.97-.36-1.62.5-2.94,1.61-3.73,3.11-.79,1.5-.95,3.22-.44,4.84.62,1.98,1.97,3.61,3.81,4.58,1.12.59,2.36.9,3.61.9.79,0,1.57-.12,2.32-.36,2.97-.92,5.26-3.17,6.28-6.18.99-2.88.73-5.95-.71-8.63-2.96-5.51-9.73-6.85-15.08-6.28-4.7.5-9.22,2.59-12.74,5.87-1-1.96-1.21-4.79-.53-7.43.7-2.75,2.19-4.88,4.08-5.86,1.52-.78,3.47-.62,4.76.4,1.02.81,1.4,1.99,1.06,3.32-.16.66-.58,1.21-1.16,1.56-.58.35-1.26.45-1.92.28-1.02-.26-1.63-1.29-1.38-2.31.08-.31.33-.66.63-.87.06-.04.12-.08.18-.11,0,.01.01.03.01.04.19.5.75.75,1.25.56.5-.19.75-.75.56-1.25-.19-.49-.69-.66-.84-.7-.55-.15-1.27.02-1.88.45-.54.38-.97.99-1.12,1.59-.42,1.68.6,3.39,2.28,3.81.98.25,1.99.1,2.86-.42.87-.52,1.48-1.34,1.73-2.32.31-1.22.16-2.37-.41-3.35,1.14,0,2.21-.46,3.1-1.32.73-.71,1.13-1.65,1.15-2.65.02-1.01-.36-1.96-1.07-2.69-1.21-1.24-3.2-1.28-4.44-.07-.44.42-.75,1.1-.82,1.77-.07.73.15,1.44.55,1.84.11.11.51.47,1.03.38.52-.09.88-.58.8-1.11-.04-.26-.18-.48-.39-.63-.21-.15-.47-.21-.72-.17-.01,0-.03,0-.04,0,0-.07,0-.14,0-.21.03-.37.21-.76.44-.98.36-.35.83-.54,1.36-.54.51,0,.98.21,1.34.58.47.48.73,1.12.72,1.8,0,.68-.28,1.31-.77,1.78-.99.96-2.2,1.22-3.41.74-1.53-.6-2.65-2.22-2.73-3.92-.1-2.12,1-4.48,3.03-6.46,1.95-1.91,4.5-3.14,6.7-3.25-1.08,4.69-.63,9.65,1.29,13.97,2.12,4.8,6.56,9.92,12.65,9.92h0c.11,0,.22,0,.32,0,3.05-.09,5.83-1.41,7.83-3.7,2.09-2.39,2.89-5.5,2.21-8.53-.46-2.03-1.68-3.76-3.44-4.87-1.76-1.11-3.84-1.47-5.87-1.01-1.65.37-3.06,1.37-3.97,2.81-.91,1.44-1.2,3.14-.83,4.79.63,2.8,3.42,4.56,6.22,3.93.97-.21,1.99-.89,2.64-1.77.75-1.01,1.05-2.19.78-3.09-.08-.24-.31-.83-.81-1.01-.5-.18-1.06.08-1.24.58-.09.25-.08.51.04.75.11.24.31.41.55.5.11.04.21.06.32.06-.05.46-.27,1-.62,1.47-.47.64-1.22,1.15-1.91,1.3-1.03.24-2.09.05-2.98-.52-.9-.57-1.52-1.45-1.76-2.48-.3-1.33-.06-2.7.67-3.85.73-1.16,1.87-1.96,3.2-2.26,1.7-.38,3.45-.08,4.94.85,1.48.94,2.5,2.39,2.89,4.09.6,2.63-.11,5.34-1.93,7.44-1.77,2.03-4.24,3.19-6.93,3.27ZM69.21,106.45c.05.02.11.02.16.02.11,0,.21-.03.31-.08l3.94-2.27c.14-.08.25-.22.29-.38.04-.16.02-.33-.06-.47-.08-.14-.21-.25-.37-.29-.16-.04-.33-.02-.47.06l-3.93,2.27c-.14.08-.25.22-.29.38-.04.16-.02.33.06.47.08.14.22.25.38.29ZM119.49,2.39c9.2.65,18.14,2.92,26.59,6.72l.21.09c1.15.51,2.14.96,3.12,1.72,2.64,2.06,4.5,5.49,4.86,8.94.02.19.13.36.29.47.16.1.36.12.54.05,3.54-1.31,6.84-1.1,9.53.61.7.44,1.12.83,1.71,1.37l.52.48c.12.11.27.16.42.16.18,0,.34-.07.46-.2.11-.12.17-.28.16-.45,0-.17-.08-.32-.2-.43-.62-.58-1.26-1.14-1.88-1.68-4.71-4.07-9.92-7.6-15.5-10.47-1.27-.65-2.48-1.24-3.8-1.83-8.57-3.86-17.63-6.14-26.94-6.8-.17-.02-.33.03-.46.13-.13.11-.22.27-.22.44-.03.34.23.64.57.66ZM161.76,18.53c-2-.41-4.14-.26-6.37.45-.38-2.35-1.37-4.65-2.81-6.56,3.2,1.82,6.29,3.87,9.18,6.12ZM111.35,146c-.35-.6-.78-1.15-1.28-1.63-1.17-1.13-2.71-1.75-4.32-1.7-1.62.03-3.13.69-4.26,1.85-1.91,1.97-1.85,5.13.12,7.03.68.67,1.75,1.12,2.8,1.18,1.35.07,2.59-.44,3.07-1.28.1-.18.27-.54.21-.89-.04-.26-.18-.48-.39-.64-.21-.15-.46-.21-.72-.17-.53.08-.89.58-.81,1.11.02.13.07.26.14.37-.39.19-.92.29-1.44.25-.75-.04-1.53-.37-2-.83-1.48-1.43-1.52-3.8-.09-5.28.89-.93,2.1-1.45,3.38-1.47h.09c1.25,0,2.44.48,3.35,1.36,1.19,1.15,1.86,2.69,1.89,4.34.03,1.65-.59,3.22-1.74,4.4-3.18,3.3-8.54,3.46-11.94.37-2.07-1.88-3.41-5.13-3.68-8.92-.08-1.16-.06-1.89.28-2.88.71-2.07,2.35-3.48,3.57-4.53.38-.33.7-.61.94-.87.66-.7,1.49-1.8,1.7-3.04.15-.9.01-1.76-.39-2.47-.42-.72-1.09-1.26-1.89-1.52-.88-.28-1.86-.21-2.66.18.25-3.13.22-7.7-2.41-11.96-.14-.23-.42-.34-.68-.28-.26.07-.45.29-.47.56-.33,5.74-1.5,10.08-3.57,13.26-.89-4.41-2.39-8.19-4.44-11.23-2.99-4.45-7.03-7.18-12-8.13-.33-.06-.66.16-.73.5-.03.16,0,.33.1.47.09.14.24.23.4.26,4.63.88,8.4,3.44,11.2,7.6,2.17,3.23,3.69,7.33,4.51,12.19.04.24.22.43.46.49.23.06.48-.03.64-.22,2.45-3.08,3.93-7.32,4.5-12.95,1.56,3.59,1.45,7.29,1.18,10.14-.05.51-.11,1.04-.19,1.63-.15,1.14-.33,2.28-.5,3.39v.04c-.33,2.06-.63,4.01-.77,5.96-.12,1.69-.09,3.19.09,4.61.47,3.66,1.88,6.73,3.97,8.63,1.8,1.63,4.14,2.53,6.61,2.53,2.67,0,5.24-1.08,7.06-2.96,1.38-1.42,2.12-3.3,2.08-5.29-.02-1.26-.36-2.5-.99-3.58ZM94.5,136.34v-.03s.02-.11.02-.11c.2-1.26.42-2.68.59-4.1.42-.73,1.51-1.08,2.45-.77.89.29,1.68,1.21,1.45,2.6-.16.93-.84,1.82-1.38,2.4-.2.21-.52.48-.85.77l-.02.02c-.81.7-1.9,1.63-2.79,2.89.14-1.19.33-2.4.53-3.67ZM114.59,155.05c-.1-.21-.31-.35-.57-.35-.25,0-.46.14-.56.35-.51,1.11-1.2,2-2.11,2.71-.13.1-.22.26-.23.42-.02.16.03.33.13.46,1.25,1.54,1.66,2.3,2.18,4.02.08.26.32.44.59.44s.51-.18.59-.44c.52-1.72.93-2.47,2.18-4.02.1-.13.15-.3.13-.45-.02-.17-.1-.32-.23-.42-.91-.71-1.59-1.6-2.11-2.71ZM114.03,160.63c-.33-.76-.74-1.41-1.43-2.29.55-.51,1.02-1.07,1.43-1.72.4.64.87,1.21,1.43,1.72-.69.88-1.1,1.54-1.43,2.29ZM152.72,27.94c0-1.16-.94-2.11-2.11-2.11s-2.11.95-2.11,2.11.95,2.11,2.11,2.11,2.11-.95,2.11-2.11ZM149.74,27.94c0-.48.39-.87.87-.87s.87.39.87.87-.39.87-.87.87-.87-.39-.87-.87ZM113.46,12.32s0,0,0,.01c.1.22.32.36.56.36s.47-.15.57-.37c.8-1.84,1.87-3.3,3.29-4.47.26-.21.3-.59.1-.86-1.93-2.52-2.55-3.74-3.35-6.54-.07-.27-.32-.45-.6-.45s-.52.18-.6.45c-.8,2.81-1.43,4.03-3.35,6.55-.2.26-.16.64.09.86,1.41,1.17,2.48,2.63,3.29,4.47ZM114.03,2.68c.58,1.62,1.25,2.8,2.61,4.61-1.05.96-1.91,2.06-2.61,3.37-.71-1.31-1.56-2.41-2.61-3.37,1.36-1.81,2.03-2.99,2.61-4.61ZM75.35,27.94c0,1.16.95,2.11,2.11,2.11s2.11-.95,2.11-2.11-.95-2.11-2.11-2.11-2.11.95-2.11,2.11ZM78.32,27.94c0,.48-.39.87-.87.87s-.87-.39-.87-.87.39-.87.87-.87.87.39.87.87ZM161,28.21c-1.32.55-2.64,1.28-4.04,2.22-1.61,1.09-3.15,2.33-4.79,3.65l-.04.03c-.82.66-1.75,1.41-2.67,2.11-.51.39-.93.7-1.32.98-2.33,1.66-5.47,3.6-9.37,4.05,4.59-3.31,7.52-6.71,8.97-10.38.09-.22.03-.48-.14-.66-.17-.17-.43-.23-.66-.14-4.61,1.71-8.92,2.45-12.81,2.18-5-.34-9.1-2.33-12.18-5.9-.11-.12-.26-.2-.42-.21-.17-.02-.32.04-.45.15-.26.22-.29.62-.06.87,3.3,3.83,7.69,5.96,13.04,6.33,3.66.26,7.68-.34,11.95-1.77-1.72,3.38-4.89,6.56-9.69,9.72-.23.15-.33.43-.26.69.07.27.31.45.58.46,5.03.14,8.98-2.12,11.56-3.9.06.89.49,1.77,1.17,2.39,1.27,1.14,3.2,1.14,4.6-.01.97-.8,1.5-2.07,1.78-2.99.1-.33.18-.74.28-1.28.29-1.55.69-3.68,2.13-5.33.69-.79,1.31-1.17,2.36-1.68,3.42-1.66,6.91-2.12,9.57-1.27,4.38,1.4,6.91,6.12,5.65,10.53-.46,1.59-1.5,2.9-2.94,3.7-1.45.8-3.12.99-4.7.54-1.24-.35-2.26-1.17-2.89-2.29-.62-1.13-.77-2.43-.42-3.67.57-1.98,2.64-3.12,4.62-2.56.63.17,1.31.69,1.72,1.32.29.44.47.95.5,1.38-.13,0-.26.02-.39.06-.5.2-.75.76-.55,1.25.09.24.28.43.51.54.24.11.5.11.74.02.35-.13.58-.49.66-.63.48-.84.31-2.17-.43-3.3-.58-.87-1.5-1.57-2.42-1.83-2.64-.76-5.4.78-6.15,3.41-.45,1.56-.26,3.2.53,4.61.79,1.42,2.08,2.44,3.64,2.89.67.19,1.36.29,2.05.29,1.25,0,2.49-.32,3.59-.94,1.74-.96,2.99-2.54,3.53-4.45,1.45-5.04-1.45-10.45-6.46-12.05-2.7-.86-6.06-.55-9.46.88ZM154.8,36.57h.01s0,0,0,0h0s0,.01,0,.02c0,0,0,.01,0,.02-.08.43-.16.83-.24,1.11-.23.76-.66,1.79-1.38,2.39-1.09.9-2.29.68-2.98.05-.73-.66-.98-1.78-.55-2.51,1.13-.85,2.28-1.77,3.28-2.58l.07-.05c1.01-.81,1.96-1.58,2.93-2.31-.65,1.4-.91,2.8-1.11,3.85ZM90.91,154.43s0,0-.02,0c-.23-.07-.45-.14-.69-.21-.76-.24-1.31-.42-2.03-.8-2.83-1.48-4.66-4.23-5.29-7.95-.03-.19-.15-.36-.32-.45-.17-.09-.37-.1-.55-.02-3.17,1.42-7.07,1.52-10.17.27-1.15-.47-2.03-1.1-3.05-1.84l-.18-.13c-7.52-5.41-13.95-12.03-19.12-19.67-.09-.14-.23-.23-.4-.26-.16-.03-.33,0-.46.09-.14.1-.24.25-.27.41-.03.16.01.33.1.45,5.24,7.74,11.75,14.46,19.37,19.95,1.17.85,2.28,1.6,3.49,2.38,5.28,3.39,10.93,6.15,16.81,8.19.77.27,1.58.53,2.39.79.06.02.12.03.19.03.1,0,.2-.02.29-.07.15-.08.25-.21.3-.36.05-.16.03-.34-.06-.5-.08-.13-.2-.22-.34-.27ZM74.72,147.27c2.38.3,4.87,0,7.09-.84.5,2.28,1.44,4.21,2.8,5.74-3.39-1.39-6.71-3.03-9.89-4.9ZM86.63,139.84h0c.18.05.37.07.55.07.37,0,.73-.1,1.05-.28,1-.58,1.35-1.87.77-2.88-.28-.49-.74-.83-1.28-.98-.54-.14-1.11-.07-1.6.21-.49.28-.84.74-.98,1.28s-.07,1.11.21,1.6c.28.49.73.84,1.28.98ZM86.75,137.06h0c.13-.08.28-.12.43-.12.08,0,.15,0,.23.03.22.06.41.2.53.4.12.2.15.43.09.66-.06.22-.2.41-.4.53-.2.12-.43.14-.65.09-.23-.06-.41-.21-.53-.4-.24-.41-.1-.95.32-1.18ZM60.78,23.01c.16,0,.3-.06.42-.16l.53-.49c.59-.54,1.02-.92,1.71-1.36,2.69-1.71,5.99-1.92,9.53-.61.18.07.38.05.55-.05.16-.1.27-.27.29-.46.35-3.46,2.21-6.88,4.86-8.94.98-.76,1.97-1.21,3.12-1.73l.2-.09c8.45-3.81,17.39-6.07,26.59-6.72.17-.01.32-.09.42-.21.11-.12.16-.29.15-.45-.01-.17-.09-.33-.23-.44-.13-.1-.29-.16-.44-.13-9.32.66-18.39,2.95-26.96,6.81-1.31.59-2.52,1.17-3.8,1.83-5.58,2.87-10.79,6.39-15.5,10.47-.63.54-1.26,1.11-1.88,1.68-.12.11-.19.27-.2.43,0,.17.05.33.16.44.12.13.28.2.46.2ZM75.49,12.42c-1.45,1.91-2.44,4.21-2.81,6.56-1.4-.44-2.78-.67-4.12-.67-.77,0-1.52.07-2.25.22,2.9-2.24,5.98-4.3,9.18-6.12ZM64.21,48.04c-.65-.38-1.41-.47-2.14-.28-.73.19-1.34.66-1.71,1.31-.38.65-.48,1.41-.28,2.14.19.73.66,1.34,1.31,1.71.43.25.91.38,1.41.38,1.01,0,1.95-.54,2.45-1.41.78-1.35.31-3.07-1.03-3.85ZM64.16,51.27c-.44.75-1.4,1.01-2.16.58-.75-.44-1.01-1.4-.58-2.16.28-.49.81-.79,1.37-.79.27,0,.55.07.79.21.36.21.62.55.73.96s.05.83-.16,1.2ZM165.27,53.3c.49,0,.98-.13,1.41-.38,1.35-.78,1.81-2.51,1.03-3.85-.38-.65-.98-1.12-1.71-1.31-.73-.19-1.49-.09-2.14.28-1.35.78-1.81,2.51-1.03,3.85.5.87,1.44,1.41,2.45,1.41ZM164.48,49.12c.76-.43,1.72-.17,2.16.58.43.75.18,1.72-.58,2.16-.37.21-.79.27-1.2.16-.41-.11-.75-.37-.96-.73-.44-.75-.18-1.72.58-2.16ZM130.64,27.52c-.17-.02-.33.02-.46.13-.13.1-.21.25-.23.42-.04.34.21.65.55.69.61.07,1.24.1,1.87.1,3.97,0,9.21-1.47,12-5.61.55-.81.98-1.7,1.25-2.55.42-1.32.44-2.56.06-3.49-.34-.84-.98-1.44-1.9-1.79-.66-.25-1.38-.23-2.03.06-.65.29-1.15.82-1.4,1.48-.15.4-.22,1.03-.05,1.53.13.38.41.66.75.76.51.14,1.05-.16,1.2-.67.14-.51-.16-1.05-.67-1.2-.02,0-.03,0-.05-.01.29-.7,1.1-1.05,1.81-.78.58.22.99.6,1.19,1.11.22.54.24,1.25.06,2.07-.13.6-.26,1.05-.73,1.49-.55.5-1.11.53-1.88.58-.39.02-.8.05-1.24.14-.47.1-.88.26-1.24.48-.92.58-1.31,1.57-.99,2.51.15.45.43.81.82,1.07-2.54,1.3-5.7,1.84-8.69,1.51ZM140.16,23.48h0c.22-.14.5-.25.82-.31.36-.08.72-.1,1.07-.12.33-.02.66-.04.99-.1-.63.84-1.41,1.58-2.31,2.21h-.02c-.56,0-.92-.31-1.03-.62-.13-.38.06-.8.48-1.06ZM44.6,43.17c.06.15.18.28.33.35.08.04.17.05.25.05.08,0,.16-.01.23-.04,1.07-.43,2.18-.58,3.4-.47.23.03.47-.09.59-.31.12-.21.12-.47-.02-.66-.71-1-1.13-2.04-1.29-3.18-.02-.16-.11-.31-.25-.41-.14-.1-.31-.14-.47-.12-1.96.31-2.82.29-4.57-.12-.27-.06-.55.06-.68.29-.14.24-.1.53.08.73,1.23,1.31,1.68,2.04,2.39,3.89ZM46.96,39.69c.16.73.41,1.42.77,2.1-.76.03-1.49.15-2.2.38-.42-1.04-.78-1.72-1.27-2.38.82.09,1.59.06,2.7-.09ZM85.83,18.56h0c.15.51.68.81,1.2.67.33-.09.61-.38.75-.76.17-.5.1-1.13-.05-1.53-.25-.66-.75-1.19-1.4-1.48-.65-.29-1.37-.31-2.03-.06-.92.35-1.56.95-1.9,1.79-.38.93-.36,2.17.06,3.49.27.86.71,1.74,1.25,2.55,2.79,4.13,8.03,5.61,12,5.61.63,0,1.26-.04,1.87-.11.17-.02.31-.1.42-.23.1-.13.15-.29.13-.46-.02-.17-.1-.32-.23-.42-.13-.1-.28-.15-.46-.13-3,.34-6.15-.21-8.69-1.51.39-.26.67-.62.82-1.07.32-.94-.07-1.93-.99-2.51-.35-.22-.77-.38-1.23-.48-.45-.09-.86-.12-1.25-.14-.74-.04-1.33-.08-1.88-.58-.43-.4-.58-.8-.73-1.49-.18-.82-.16-1.53.06-2.07.21-.51.61-.88,1.19-1.1.72-.27,1.52.08,1.81.78-.02,0-.04,0-.05.01-.51.15-.81.69-.67,1.2ZM86.01,23.05v-.12s0,.12,0,.12c.35.02.71.04,1.07.12.32.07.6.17.82.31.42.26.61.68.48,1.06-.1.3-.42.62-1.02.62h-.03c-.91-.63-1.68-1.38-2.31-2.21.34.06.67.08.99.1ZM148.56,60.13c3.94,6.82,5.76,14.57,5.26,22.42-.02.34.24.63.58.65h.04c.33,0,.6-.25.62-.58.51-8.08-1.37-16.08-5.43-23.11-4.06-7.04-10.04-12.66-17.3-16.25-.15-.07-.32-.08-.47-.03-.16.05-.28.16-.36.31-.15.3-.03.68.28.83,7.04,3.49,12.84,8.94,16.78,15.76ZM114.03,33.66c.34,0,.62-.28.62-.62v-4.54c0-.34-.28-.62-.62-.62s-.62.28-.62.62v4.54c0,.34.28.62.62.62ZM140.34,135.77c-.54.14-1,.49-1.28.98-.28.49-.36,1.05-.21,1.6.15.54.49,1,.98,1.28.32.19.68.28,1.05.28.75,0,1.45-.4,1.83-1.05.58-1.01.23-2.3-.77-2.88-.49-.28-1.05-.36-1.6-.21ZM141.64,138.24c-.12.2-.3.34-.53.4-.22.06-.46.03-.66-.09-.2-.12-.34-.3-.4-.53-.06-.22-.03-.46.09-.66.12-.2.3-.34.53-.4.07-.02.15-.03.22-.03.15,0,.3.04.43.12.2.12.34.3.4.53.06.22.03.46-.09.66ZM52.73,120.02h0c.33.04.64-.18.69-.51.31-1.8,1.04-3.46,2.23-5.08.15-.2.16-.47.04-.67-.12-.21-.37-.33-.61-.31-1.99.22-3.8.03-5.51-.61-.31-.12-.66.03-.79.34-1.22,2.93-1.96,4.08-3.99,6.18-.19.2-.23.51-.09.74.11.19.32.31.54.31.05,0,.1,0,.15-.02,2.84-.71,4.21-.78,7.34-.37ZM47.01,118.76c1.11-1.32,1.79-2.48,2.69-4.57,1.36.43,2.74.62,4.22.58-.78,1.27-1.31,2.56-1.61,3.95-2.25-.27-3.61-.26-5.3.04ZM134.79,136.1h-.12s.11-.03.11-.03v-.07c-.2-1.2-.37-2.28-.5-3.35-.08-.58-.14-1.11-.19-1.63-.28-2.85-.38-6.54,1.18-10.14.57,5.63,2.04,9.86,4.5,12.94,0,0,0,0,0,0,.15.19.39.27.64.21.23-.06.41-.26.45-.5.82-4.86,2.34-8.96,4.51-12.18,2.8-4.16,6.57-6.72,11.2-7.6.16-.03.31-.12.4-.26.09-.14.13-.3.1-.46-.03-.16-.12-.3-.26-.4-.13-.09-.29-.12-.46-.1-4.97.95-9.01,3.68-12,8.13-2.05,3.05-3.55,6.83-4.44,11.23-2.07-3.18-3.24-7.52-3.57-13.26-.02-.27-.21-.5-.46-.56-.26-.07-.54.04-.69.27-2.63,4.26-2.65,8.83-2.4,11.96-.8-.4-1.78-.47-2.66-.18-.8.26-1.48.8-1.89,1.52-.41.71-.55,1.56-.39,2.47.21,1.24,1.04,2.33,1.7,3.04.25.27.6.57.97.89,1.2,1.03,2.84,2.44,3.54,4.51.34,1,.36,1.72.28,2.88-.27,3.79-1.61,7.04-3.68,8.92-3.4,3.09-8.75,2.92-11.94-.37-1.15-1.19-1.76-2.75-1.74-4.4.03-1.65.7-3.19,1.89-4.34.91-.87,2.09-1.36,3.35-1.36h.09c1.29.03,2.49.55,3.38,1.47,1.43,1.48,1.39,3.85-.09,5.28-.47.46-1.26.79-2,.83-.54.03-1.05-.06-1.44-.25.07-.11.12-.24.14-.37.08-.53-.28-1.02-.81-1.11-.53-.07-1.02.29-1.11.81-.06.35.11.71.21.89.48.83,1.72,1.34,3.07,1.28,1.04-.06,2.11-.52,2.79-1.18,1.97-1.91,2.02-5.06.12-7.04-1.13-1.16-2.64-1.82-4.26-1.85-1.58-.03-3.16.59-4.32,1.7-.5.48-.93,1.04-1.28,1.63-.62,1.08-.96,2.32-.98,3.58-.04,1.98.71,3.86,2.08,5.29,1.82,1.88,4.39,2.96,7.06,2.96,2.47,0,4.81-.9,6.61-2.53,2.1-1.91,3.51-4.97,3.97-8.63.18-1.42.21-2.92.09-4.61-.13-1.93-.44-3.88-.76-5.95ZM131.28,137.09l-.08.08.07-.09c-.34-.29-.64-.55-.83-.76-.54-.58-1.22-1.46-1.38-2.39-.23-1.4.56-2.32,1.45-2.6.23-.07.47-.11.71-.11.75,0,1.43.35,1.74.88.16,1.39.38,2.79.59,4.15,0,0,0,0,0,.01h0c.19,1.24.39,2.51.55,3.74-.89-1.26-1.99-2.21-2.82-2.92ZM36.57,87.79h0s-.02-.23-.02-.23c-.13-1.25-.24-2.33-.07-3.56.46-3.32,2.5-6.64,5.32-8.68.16-.11.25-.29.25-.49,0-.2-.08-.38-.22-.49-2.9-2.41-4.37-5.37-4.24-8.56.03-.82.16-1.39.33-2.17.05-.23.1-.46.15-.7.03-.15,0-.31-.07-.45-.09-.14-.23-.25-.4-.29-.16-.04-.33,0-.47.08-.14.09-.24.23-.27.39-.18.82-.36,1.64-.51,2.46-1.18,6.11-1.62,12.39-1.32,18.65.07,1.44.17,2.78.31,4.21.95,9.35,3.5,18.34,7.58,26.73.06.15.19.27.35.33.07.03.14.04.22.04.09,0,.19-.02.27-.06.31-.15.44-.52.29-.83-4.03-8.29-6.55-17.17-7.47-26.39ZM36.88,69.5c.65,1.94,1.85,3.72,3.57,5.29-1.85,1.5-3.35,3.51-4.27,5.72-.03-3.68.21-7.38.7-11.01ZM160.57,53.2s0,0,0,0c-.11-.18-.31-.29-.54-.3-.11,0-.21,0-.32,0-4.36,0-6.86-1.96-8.55-3.69-.44-.45-.87-.92-1.28-1.38-.39-.44-.8-.89-1.22-1.33-.78-.8-1.59-1.59-2.42-2.33-.12-.11-.29-.17-.45-.16-.16,0-.31.08-.42.21-.23.25-.21.64.04.88,3.69,3.31,6.82,7.17,9.31,11.49,2.49,4.31,4.27,8.96,5.3,13.82.07.29.32.48.6.48.04,0,.08,0,.13-.01.16-.03.3-.13.39-.27.09-.14.12-.31.09-.47-.23-1.09-.5-2.18-.81-3.26-.16-.57-.35-1.14-.53-1.71-.19-.59-.39-1.21-.56-1.81-.66-2.39-1.13-5.63,1.24-9.52.12-.19.12-.44,0-.63ZM157.55,59.32c-.54-1.14-1.14-2.26-1.77-3.36-.63-1.09-1.31-2.17-2.02-3.21,1.58.83,3.29,1.28,5.21,1.37-.88,1.71-1.35,3.41-1.42,5.2Z"/><path class="cls-1" d="M136.52,57.58c-5.75-5.76-13.71-9.31-22.49-9.31s-16.73,3.56-22.48,9.31c-5.75,5.75-9.31,13.7-9.31,22.48s3.56,16.73,9.31,22.49c5.75,5.75,13.7,9.31,22.48,9.31s16.73-3.56,22.49-9.31c5.75-5.76,9.31-13.7,9.31-22.49s-3.56-16.73-9.31-22.48ZM133.35,99.38c-2.09,2.09-4.52,3.84-7.2,5.17-6.27,3.11-12.68-4.1-8.85-9.96.71-1.08,1.68-2,2.89-2.68,2.71-1.53,4.78-4.04,5.65-7.72,1.53-6.47-.9-15.36-3.67-20.67-.18-.36-.94-.23-.81.26,1.68,6.42,2.71,13.75,1.14,19.25-.5,1.77-3.28,1.43-3.24-.47.13-6.38-.45-13.06-1.88-18.96-.1-.41-.9-.38-.89.1.14,6.28.06,12.88-.79,19.12-.25,1.84-3.07,1.84-3.32,0-.85-6.24-.92-12.83-.79-19.12,0-.48-.79-.51-.89-.1-1.43,5.9-2.01,12.59-1.88,18.96.04,1.9-2.74,2.23-3.24.47-1.57-5.5-.54-12.83,1.14-19.25.13-.49-.62-.62-.81-.26-2.77,5.31-5.21,14.2-3.67,20.67.87,3.68,2.94,6.18,5.65,7.72,1.21.69,2.18,1.6,2.89,2.68,3.83,5.87-2.58,13.07-8.85,9.96-2.68-1.33-5.11-3.08-7.2-5.17-4.94-4.94-8-11.77-8-19.31s3.06-14.37,8-19.31c4.94-4.94,11.77-8,19.31-8s14.37,3.06,19.31,8c4.94,4.94,8,11.77,8,19.31s-3.06,14.37-8,19.31Z"/></g></svg>